<?xml version="1.0" encoding="UTF-8" standalone="no"?>
<svg
   height="72"
   viewBox="0 0 72 72"
   width="72"
   version="1.1"
   id="svg2"
   sodipodi:docname="LinkedIn_icon.svg"
   inkscape:export-filename="LinkedIn_icon.png"
   inkscape:export-xdpi="96"
   inkscape:export-ydpi="96"
   xmlns:inkscape="http://www.inkscape.org/namespaces/inkscape"
   xmlns:sodipodi="http://sodipodi.sourceforge.net/DTD/sodipodi-0.dtd"
   xmlns="http://www.w3.org/2000/svg"
   xmlns:svg="http://www.w3.org/2000/svg">
  <defs
     id="defs2" />
  <sodipodi:namedview
     id="namedview2"
     pagecolor="#505050"
     bordercolor="#eeeeee"
     borderopacity="1"
     inkscape:showpageshadow="0"
     inkscape:pageopacity="0"
     inkscape:pagecheckerboard="0"
     inkscape:deskcolor="#505050" />
  <g
     fill="none"
     fill-rule="evenodd"
     id="g2">
    <path
       id="path1"
       d="M 8,0 C 3.5817264,0 0,3.5817264 0,8 v 56 c 0,4.418274 3.5817264,8 8,8 h 56 c 4.418274,0 8,-3.581726 8,-8 V 8 C 72,3.5817264 68.418274,0 64,0 Z m 8.349609,10 c 3.507288,0 6.347657,2.863838 6.347657,6.396484 0,3.532647 -2.840369,6.398438 -6.347657,6.398438 C 12.842321,22.794922 10,19.929131 10,16.396484 10,12.863838 12.842321,10 16.349609,10 Z M 49.382812,26.273438 C 56.73593,26.273438 62,30.764049 62,40.050781 V 62 H 51.316406 V 43.802734 c 0,-4.989355 -1.896618,-7.777343 -5.845703,-7.777343 -4.296089,0 -6.541016,2.901344 -6.541015,7.777343 V 62 H 28.632812 V 27.333984 h 10.296876 v 4.667969 c 0,0 3.096621,-5.728516 10.453124,-5.728515 z M 11.033203,27.333984 H 21.769531 V 62 H 11.033203 Z"
       style="fill:#ffffff" />
  </g>
</svg>
